<svg width="25" height="20" viewBox="0 0 25 20" xmlns="http://www.w3.org/2000/svg"><title>Shape</title><path d="M1.068.492A1.123 1.123 0 0 0 .002 1.665a1.128 1.128 0 0 0 1.184 1.058h3.847l.543 2.021c.007.137.039.27.094.396l.024.023 2.407 9.11.236.836H21.885l.236-.837 2.501-9.295L25 3.56H7.606l-.59-2.231L6.78.492H1.186a1.15 1.15 0 0 0-.118 0zM8.196 5.79h3.139l.613 2.673H8.904L8.196 5.79zm4.72 0h5.05l-.613 2.673H13.53l-.614-2.673zm6.632 0h2.502l-.708 2.673h-2.408l.614-2.673zM9.376 10.206h2.974l.637 2.672h-2.903l-.708-2.672zm4.578 0h2.974l-.613 2.672h-1.747l-.614-2.672zm4.58 0h2.336l-.708 2.672h-2.266l.637-2.672zm-6.893 5.972c-.948 0-1.722.763-1.722 1.696 0 .934.774 1.673 1.722 1.673s1.7-.74 1.7-1.673-.752-1.696-1.7-1.696zm6.538 0c-.948 0-1.723.763-1.723 1.696 0 .934.775 1.673 1.723 1.673.948 0 1.7-.74 1.7-1.673s-.752-1.696-1.7-1.696z" fill="#C3FF00" fill-rule="evenodd"/></svg>