<svg width="97" height="20" viewBox="0 0 97 20" xmlns="http://www.w3.org/2000/svg"><title>Group</title><g fill="#C4FF00" fill-rule="evenodd"><path d="M4.94 0H9.7L4.76 20H0zM11.82 3h3.68l-3.82 14.46H8zM18.701 0h4.76l-4.94 20h-4.76zM29.548 16.963c1.934 1.795 4.532 2.722 6.986 2.722 4.475 0 7.073-2.722 7.073-5.85 0-2.664-1.444-4.199-3.724-5.125l-2.396-.985C35.84 7.059 34.6 6.653 34.6 5.495c0-1.071.952-1.708 2.396-1.708 1.5 0 2.685.55 3.926 1.505L43.058 2.6C41.442.977 39.161.11 36.996.11c-3.898 0-6.698 2.49-6.698 5.618 0 2.75 1.848 4.373 3.81 5.154l2.426 1.043c1.645.695 2.714 1.072 2.714 2.259 0 1.13-.867 1.824-2.628 1.824-1.558 0-3.29-.81-4.619-1.969l-2.453 2.925zm26.035 2.722c5.08 0 8.545-3.707 8.545-9.875 0-6.14-3.464-9.701-8.545-9.701-5.052 0-8.546 3.533-8.546 9.701 0 6.168 3.494 9.875 8.546 9.875zm0-3.678c-2.54 0-4.186-2.403-4.186-6.197 0-3.765 1.645-6.023 4.186-6.023 2.569 0 4.186 2.258 4.186 6.023 0 3.794-1.617 6.197-4.186 6.197zm13.246 3.33H80.52v-3.59H73.1V.457H68.83v18.88zm16.075 0H97v-3.59h-7.824v-4.344h6.41V7.84h-6.41V4.047h7.535V.457H84.904v18.88z"/></g></svg>